<svg id="visual" viewBox="0 0 900 600" width="900" height="600" xmlns="http://www.w3.org/2000/svg"
     xmlns:xlink="http://www.w3.org/1999/xlink" version="1.1">
    <path d="M808 600L813 580C818 560 828 520 828 480C828 440 818 400 809 360C800 320 792 280 785.5 240C779 200 774 160 771.5 120C769 80 769 40 769 20L769 0L900 0L900 20C900 40 900 80 900 120C900 160 900 200 900 240C900 280 900 320 900 360C900 400 900 440 900 480C900 520 900 560 900 580L900 600Z"
          fill="#311959" stroke-linecap="round" stroke-linejoin="miter"></path>
</svg>