<?xml version="1.0" encoding="UTF-8"?><svg id="a" xmlns="http://www.w3.org/2000/svg" viewBox="0 0 512 512"><defs><style>.b{fill:#176b68;}.c{fill:#e8c11a;}.d{fill:#187c75;}.e{fill:#d6930d;}.f{fill:#0b4943;}.g{fill:#0f5651;}.h{fill:#fad223;}.i{fill:#efdb25;}.j{fill:#e6e6e6;}.k{fill:#122d5e;}.l{fill:#ffb30d;}.m{fill:#ccc;}.n{fill:#f9e926;}.o{fill:#fff0c8;}</style></defs><ellipse class="j" cx="256" cy="414.67" rx="192" ry="31.23"/><path class="f" d="M146.12,369.82c-3.48,3.49-5.64,8.3-5.64,13.62,0,10.63,8.62,19.26,19.26,19.26h221.55v9.77H159.74c-16.01,0-29.03-13.02-29.03-29.03s13.02-29.03,29.03-29.03h221.55v9.77H159.74c-5.31,0-10.13,2.16-13.62,5.64Z"/><rect class="b" x="179.4" y="66.11" width="201.88" height="288.31"/><path class="g" d="M179.4,66.11V354.42h-19.66c-16.01,0-29.03,13.02-29.03,29.03V95.13c0-16,13.02-29.03,29.03-29.03h19.66Z"/><path class="k" d="M179.4,97.85v33.71h-19.66c-16.01,0-29.02,13.03-29.02,29.02v-33.7c0-16,13.01-29.03,29.02-29.03h19.66Z"/><path class="k" d="M179.4,291.69v33.71h-19.66c-16.01,0-29.02,13.03-29.02,29.02v-33.7c0-16,13.01-29.03,29.02-29.03h19.66Z"/><path class="o" d="M381.28,364.19v38.51H159.74c-5.9,0-11.18-2.65-14.71-6.84-1.97-2.32-3.39-5.12-4.07-8.19-.31-1.36-.48-2.78-.48-4.23,0-1.07,.09-2.14,.26-3.17,.5-3.03,1.71-5.82,3.45-8.19,.59-.81,1.23-1.56,1.93-2.26,3.49-3.48,8.3-5.64,13.62-5.64h221.54Z"/><path class="m" d="M381.28,372.09v8.19H179.14c-2.26,0-4.09-1.83-4.09-4.09h0c0-2.26,1.83-4.09,4.09-4.09h202.14Z"/><path class="m" d="M381.28,387.67v8.19H179.14c-2.26,0-4.09-1.83-4.09-4.09h0c0-2.26,1.83-4.09,4.09-4.09h202.14Z"/><polygon class="k" points="350.3 429.97 326.07 415.03 301.83 429.97 301.83 375.38 350.3 375.38 350.3 429.97"/><rect class="d" x="273.41" y="66.11" width="107.87" height="288.31"/><g><g><polygon class="n" points="345.28 141.61 345.07 170.39 302.02 211.72 266.99 245.37 260.59 251.52 250.03 241.43 243.68 235.37 239.45 231.35 245.36 224.59 279.32 185.75 316.55 143.18 345.28 141.61"/><rect class="e" x="217.93" y="239.57" width="54.86" height="13.5" rx="4.64" ry="4.64" transform="translate(237.91 -101.27) rotate(43.66)"/><rect class="h" x="215.07" y="254.08" width="30.33" height="16.18" transform="translate(-118.38 247.74) rotate(-46.34)"/><path class="e" d="M227.2,283.85l-3.9,4.09c-1.17,1.23-2.55,2.15-4.02,2.76-4.2,1.75-9.23,.98-12.73-2.37l-1.33-1.27c-3.51-3.35-4.51-8.33-2.96-12.61,.54-1.5,1.4-2.92,2.57-4.15l3.9-4.09c1-1.05,2.66-1.09,3.71-.09l14.69,14.02c1.05,1,1.08,2.66,.08,3.7Z"/><path class="l" d="M226.66,284.42l-3.36,3.52c-1.17,1.23-2.55,2.15-4.02,2.76-3.11,.53-6.44-.36-8.9-2.71l-5-4.77c-2.46-2.35-3.52-5.63-3.13-8.77,.54-1.5,1.4-2.92,2.57-4.15l3.36-3.52c.43,.07,.83,.27,1.17,.59l16.67,15.91c.33,.32,.55,.71,.65,1.13Z"/><path class="l" d="M266.51,257.17l-32.97-31.47c-1.85-1.77-4.79-1.7-6.56,.15l-1.46,1.53,39.69,37.87,1.46-1.53c1.77-1.85,1.7-4.79-.15-6.56Z"/><polygon class="h" points="345.28 141.61 345.07 170.39 302.02 211.72 266.99 245.37 260.59 251.52 250.03 241.43 256.18 234.98 290.72 198.79 345.28 141.61"/><g><polygon class="n" points="244.81 258.62 241.63 261.95 228.47 252.31 231.65 248.98 244.81 258.62"/><polygon class="n" points="238.41 265.33 235.22 268.66 222.07 259.02 225.25 255.69 238.41 265.33"/><polygon class="n" points="232 272.04 228.82 275.37 215.66 265.73 218.84 262.4 232 272.04"/></g><g><polygon class="i" points="279.32 185.75 245.36 224.59 256.18 234.98 290.72 198.79 279.32 185.75"/><polygon class="c" points="290.72 198.79 256.18 234.98 266.99 245.37 302.02 211.72 290.72 198.79"/></g></g><g><g><polygon class="n" points="286.23 251.52 307.37 231.35 230.27 143.17 201.54 141.61 201.76 170.39 286.23 251.52"/><rect class="e" x="274.03" y="239.57" width="54.86" height="13.5" rx="4.64" ry="4.64" transform="translate(689.6 216.4) rotate(136.34)"/><rect class="h" x="308.5" y="247.01" width="16.18" height="30.33" transform="translate(-93.45 291.07) rotate(-43.66)"/><path class="e" d="M319.62,283.85l3.9,4.09c1.17,1.23,2.55,2.15,4.02,2.76,4.2,1.75,9.23,.98,12.73-2.37l1.33-1.27c3.51-3.35,4.51-8.33,2.96-12.61-.54-1.5-1.4-2.92-2.57-4.15l-3.9-4.09c-1-1.05-2.66-1.09-3.71-.09l-14.69,14.02c-1.05,1-1.08,2.66-.08,3.7Z"/><path class="l" d="M320.17,284.42l3.36,3.52c1.17,1.23,2.55,2.15,4.02,2.76,3.11,.53,6.44-.36,8.9-2.71l5-4.77c2.46-2.35,3.52-5.63,3.13-8.77-.54-1.5-1.4-2.92-2.57-4.15l-3.36-3.52c-.43,.07-.83,.27-1.17,.59l-16.67,15.91c-.33,.32-.55,.71-.65,1.13Z"/><path class="l" d="M280.31,257.17l32.97-31.47c1.85-1.77,4.79-1.7,6.56,.15l1.46,1.53-39.69,37.87-1.46-1.53c-1.77-1.85-1.7-4.79,.15-6.56Z"/><polygon class="h" points="286.23 251.52 201.76 170.39 201.54 141.61 296.8 241.43 286.23 251.52"/></g><g><polygon class="n" points="302.01 258.62 305.19 261.95 318.36 252.31 315.17 248.98 302.01 258.62"/><polygon class="n" points="308.42 265.33 311.6 268.66 324.76 259.02 321.58 255.69 308.42 265.33"/><polygon class="n" points="314.82 272.04 318 275.37 331.16 265.73 327.98 262.4 314.82 272.04"/></g></g></g></svg>