<?xml version="1.0" encoding="UTF-8"?><svg id="a" xmlns="http://www.w3.org/2000/svg" viewBox="0 0 512 512"><defs><style>.b{fill:#0b4943;}.c{fill:#0f5651;}.d{fill:#4f2a4e;}.e{fill:#7a0627;}.f{fill:#d92525;}.g{fill:#e6e6e6;}.h{fill:#fa7f08;}.i{fill:#122d5e;}.j{fill:#ffce00;}.k{fill:#fa913c;}.l{fill:#960b2c;}.m{fill:#ccc;}.n{fill:#1e5a8c;}.o{fill:#f2f2f2;}.p{fill:#fff0c8;}</style></defs><ellipse class="g" cx="256" cy="414.67" rx="192" ry="31.23"/><path class="n" d="M113.96,369.82c-4.5,3.49-7.29,8.3-7.29,13.62,0,10.63,11.15,19.26,24.89,19.26H417.96v9.77H131.57c-20.7,0-37.52-13.02-37.52-29.03s16.83-29.03,37.52-29.03H417.96v9.77H131.57c-6.87,0-13.09,2.16-17.61,5.64Z"/><path class="p" d="M411.06,380.27c-.09,1.03-.14,2.09-.14,3.17,0,1.45,.09,2.86,.26,4.23,.35,3,1.09,5.77,2.12,8.19,1.2,2.82,2.79,5.14,4.65,6.76v.08H131.57c-.43,0-.85-.01-1.28-.03-.34-.01-.67-.03-1-.05l-.35-.03c-.23-.01-.47-.04-.69-.06-.06-.01-.13-.01-.18-.02-.17-.02-.34-.04-.5-.06-.18-.02-.36-.04-.53-.07-.26-.03-.52-.07-.78-.12-.22-.04-.45-.08-.66-.12-.03-.01-.05-.01-.08-.02-.1-.01-.21-.03-.3-.06-.06-.01-.12-.02-.18-.03-.19-.04-.39-.08-.58-.13-.05,0-.1-.03-.16-.04-.3-.06-.59-.13-.87-.21-.08-.02-.15-.04-.22-.06-.23-.06-.45-.13-.67-.2-.5-.15-.98-.31-1.46-.48-.19-.06-.37-.13-.56-.2-.28-.11-.57-.22-.84-.34-.39-.16-.76-.33-1.14-.51-.37-.18-.75-.37-1.11-.56-.36-.2-.72-.4-1.07-.61-.26-.16-.52-.32-.78-.48-.5-.33-1-.68-1.47-1.03-.23-.18-.47-.36-.7-.55-.3-.25-.59-.51-.88-.77-.63-.58-1.23-1.19-1.77-1.83-.27-.32-.53-.64-.78-.97-.21-.27-.4-.55-.58-.83-.06-.09-.12-.17-.18-.26-.01-.02-.03-.03-.03-.05-.19-.3-.37-.61-.54-.92l-.04-.06c-.37-.69-.7-1.4-.97-2.13-.06-.19-.14-.38-.21-.57-.06-.19-.12-.38-.17-.57-.1-.34-.19-.68-.27-1.03-.06-.3-.12-.6-.17-.91-.04-.22-.06-.44-.08-.67-.04-.21-.05-.42-.06-.63-.03-.33-.04-.66-.04-.99s.01-.66,.04-.99c.01-.25,.04-.49,.06-.73,0-.02,0-.04,.01-.06,0-.06,0-.13,.01-.19l.04-.27s.01-.03,.01-.04l.04-.27s.01-.07,.03-.11c.01-.14,.05-.29,.08-.43,0-.03,.01-.05,.01-.08,.01-.06,.03-.11,.04-.17,.05-.26,.13-.52,.21-.78,.04-.15,.08-.29,.13-.43,.05-.21,.13-.42,.22-.63,0-.02,0-.04,.01-.06,.01-.07,.04-.14,.08-.21,.01-.02,.01-.03,.03-.05,.06-.22,.15-.44,.26-.65,.01-.03,.03-.05,.04-.08,.08-.2,.18-.4,.27-.6,.16-.31,.32-.62,.49-.92,.01-.03,.04-.06,.05-.09,.01-.03,.03-.05,.05-.08,.12-.2,.23-.41,.36-.6,.09-.16,.19-.31,.31-.46,.1-.16,.22-.32,.34-.47,.01-.03,.03-.06,.06-.09,.22-.31,.45-.61,.7-.9,.26-.31,.53-.61,.81-.91,.17-.18,.35-.36,.53-.54,.23-.23,.47-.45,.71-.67,.19-.18,.39-.35,.59-.52,.21-.18,.43-.36,.66-.54,1.16-.9,2.46-1.71,3.83-2.42,.35-.18,.7-.35,1.06-.51,.35-.17,.71-.32,1.09-.47,.18-.08,.36-.15,.56-.22,.18-.08,.37-.14,.56-.21,.37-.14,.76-.27,1.15-.39,.54-.17,1.11-.33,1.68-.47,.18-.05,.36-.09,.54-.14,.3-.07,.62-.14,.93-.2,.26-.05,.53-.1,.79-.14,.3-.05,.58-.1,.88-.14,.44-.06,.87-.11,1.31-.16,.44-.04,.89-.07,1.33-.1,.37-.03,.75-.04,1.12-.05,.26-.01,.53-.01,.79-.01H417.95v.07c-2.09,1.81-3.85,4.53-5.08,7.83-.92,2.45-1.55,5.22-1.81,8.18Z"/><path class="m" d="M412.87,372.09c-.92,2.45-1.55,5.22-1.81,8.18H156.64c-2.92,0-5.29-1.83-5.29-4.09,0-1.13,.59-2.15,1.55-2.89s2.28-1.2,3.74-1.2H412.87Z"/><path class="m" d="M413.3,395.86H156.64c-2.92,0-5.29-1.83-5.29-4.09,0-1.13,.59-2.15,1.55-2.9,.96-.74,2.28-1.2,3.74-1.2h254.53c.35,3,1.09,5.77,2.12,8.19Z"/><polygon class="k" points="225.93 390.48 225.93 429.97 201.7 415.03 177.46 429.97 177.46 390.48 225.93 390.48"/><g><path class="c" d="M97.69,296.42c-.89,0-1.78,.07-2.64,.21-6.46,1-12.07,5.64-15.6,12.3-2.5,4.68-3.96,10.37-3.96,16.51s1.46,11.82,3.96,16.51c4,7.56,10.68,12.52,18.24,12.52h169.45v-58.05H97.69Z"/><path class="i" d="M129.54,341.95c-2.5-4.69-3.96-10.38-3.96-16.51s1.46-11.83,3.96-16.51c3.53-6.66,9.14-11.3,15.6-12.3,.86-.14,1.75-.21,2.64-.21h-21.91c-.89,0-1.78,.07-2.64,.21-6.46,1-12.07,5.64-15.6,12.3-2.5,4.68-3.96,10.37-3.96,16.51s1.46,11.82,3.96,16.51c4,7.56,10.68,12.52,18.24,12.52h21.91c-7.56,0-14.24-4.96-18.24-12.52Z"/><path class="i" d="M212.49,341.95c-2.5-4.69-3.96-10.38-3.96-16.51s1.46-11.83,3.96-16.51c3.53-6.66,9.14-11.3,15.6-12.3,.86-.14,1.75-.21,2.64-.21h-21.91c-.89,0-1.78,.07-2.64,.21-6.46,1-12.07,5.64-15.6,12.3-2.5,4.68-3.96,10.37-3.96,16.51s1.46,11.82,3.96,16.51c4,7.56,10.68,12.52,18.24,12.52h21.91c-7.56,0-14.24-4.96-18.24-12.52Z"/><path class="b" d="M254.91,311.82c-2.66,3.49-4.31,8.3-4.31,13.62,0,10.63,6.6,19.26,14.73,19.26h169.45v9.77h-169.45c-12.25,0-22.2-13.02-22.2-29.03s9.96-29.03,22.2-29.03h169.45v9.77h-169.45c-4.06,0-7.75,2.16-10.42,5.64Z"/><path class="p" d="M434.78,306.19v38.51h-169.45c-4.51,0-8.55-2.65-11.25-6.84-1.51-2.32-2.59-5.12-3.11-8.19-.24-1.36-.36-2.78-.36-4.23,0-1.07,.07-2.14,.2-3.17,.39-3.03,1.31-5.82,2.64-8.19,.45-.81,.94-1.56,1.48-2.26,2.67-3.48,6.35-5.64,10.42-5.64h169.45Z"/><path class="m" d="M434.78,314.09v8.19h-154.61c-1.73,0-3.13-1.83-3.13-4.09h0c0-2.26,1.4-4.09,3.13-4.09h154.61Z"/><path class="m" d="M434.78,329.67v8.19h-154.61c-1.73,0-3.13-1.83-3.13-4.09h0c0-2.26,1.4-4.09,3.13-4.09h154.61Z"/><polygon class="i" points="350.59 327.63 350.59 371.97 326.36 357.03 302.12 371.97 302.12 327.63 350.59 327.63"/></g><path class="d" d="M113.96,253.98c-4.5,3.49-7.29,8.3-7.29,13.62,0,10.63,11.15,19.26,24.89,19.26H417.96v9.77H131.57c-20.7,0-37.52-13.02-37.52-29.03s16.83-29.03,37.52-29.03H417.96v9.77H131.57c-6.87,0-13.09,2.16-17.61,5.64Z"/><path class="p" d="M417.95,248.35v38.51H131.56c-7.62,0-14.46-2.65-19.02-6.84-2.54-2.32-4.38-5.12-5.26-8.19-.41-1.36-.61-2.78-.61-4.23,0-1.07,.11-2.14,.33-3.17,.65-3.03,2.21-5.82,4.46-8.19,.76-.81,1.59-1.56,2.5-2.26,4.51-3.48,10.73-5.64,17.6-5.64H417.95Z"/><path class="m" d="M417.95,256.25v8.19H156.65c-2.92,0-5.29-1.83-5.29-4.09h0c0-2.26,2.37-4.09,5.29-4.09H417.95Z"/><path class="m" d="M417.95,271.84v8.19H156.65c-2.92,0-5.29-1.83-5.29-4.09h0c0-2.26,2.37-4.09,5.29-4.09H417.95Z"/><polygon class="h" points="232.91 275.93 232.91 314.13 208.67 299.19 184.44 314.13 184.44 275.93 232.91 275.93"/><g><path class="f" d="M125.63,166.64c-4.13,5.91-6.69,14.06-6.69,23.07,0,18.01,10.23,32.62,22.85,32.62H404.65v16.55H141.79c-19,0-34.44-22.06-34.44-49.17s15.44-49.17,34.44-49.17H404.65v16.55H141.79c-6.3,0-12.02,3.65-16.16,9.55Z"/><path class="p" d="M404.65,151.76v75.9H141.79c-7,0-13.27-5.23-17.45-13.47-2.34-4.57-4.02-10.08-4.83-16.14-.37-2.68-.56-5.47-.56-8.34,0-2.12,.1-4.22,.3-6.24,.6-5.98,2.03-11.47,4.1-16.14,.7-1.59,1.46-3.07,2.29-4.46,4.14-6.86,9.85-11.11,16.16-11.11H404.65Z"/><path class="m" d="M404.65,170.47v13.87H164.81c-2.68,0-4.86-3.1-4.86-6.93h0c0-3.83,2.17-6.93,4.86-6.93h239.84Z"/><path class="m" d="M404.65,196.88v13.87H164.81c-2.68,0-4.86-3.1-4.86-6.93h0c0-3.83,2.17-6.93,4.86-6.93h239.84Z"/><polygon class="o" points="350.3 256.38 326.07 241.44 301.83 256.38 301.83 201.79 350.3 201.79 350.3 256.38"/></g><g><path class="l" d="M97.69,66.11c-.89,0-1.78,.09-2.64,.27-6.46,1.28-12.07,7.23-15.6,15.76-2.5,6-3.96,13.29-3.96,21.16s1.46,15.15,3.96,21.16c4,9.69,10.68,16.04,18.24,16.04h169.45V66.11H97.69Z"/><path class="j" d="M129.54,124.45c-2.5-6.01-3.96-13.3-3.96-21.16s1.46-15.16,3.96-21.16c3.53-8.53,9.14-14.48,15.6-15.76,.86-.18,1.75-.27,2.64-.27h-21.91c-.89,0-1.78,.09-2.64,.27-6.46,1.28-12.07,7.23-15.6,15.76-2.5,6-3.96,13.29-3.96,21.16s1.46,15.15,3.96,21.16c4,9.69,10.68,16.04,18.24,16.04h21.91c-7.56,0-14.24-6.36-18.24-16.04Z"/><path class="j" d="M212.49,124.45c-2.5-6.01-3.96-13.3-3.96-21.16s1.46-15.16,3.96-21.16c3.53-8.53,9.14-14.48,15.6-15.76,.86-.18,1.75-.27,2.64-.27h-21.91c-.89,0-1.78,.09-2.64,.27-6.46,1.28-12.07,7.23-15.6,15.76-2.5,6-3.96,13.29-3.96,21.16s1.46,15.15,3.96,21.16c4,9.69,10.68,16.04,18.24,16.04h21.91c-7.56,0-14.24-6.36-18.24-16.04Z"/><path class="e" d="M254.91,85.85c-2.66,4.47-4.31,10.63-4.31,17.45,0,13.63,6.6,24.68,14.73,24.68h169.45v12.52h-169.45c-12.25,0-22.2-16.69-22.2-37.2s9.96-37.2,22.2-37.2h169.45v12.52h-169.45c-4.06,0-7.75,2.76-10.42,7.22Z"/><path class="p" d="M434.78,74.15v58.3h-169.45c-4.51,0-8.55-4.02-11.25-10.35-1.51-3.51-2.59-7.74-3.11-12.39-.24-2.06-.36-4.2-.36-6.41,0-1.63,.07-3.24,.2-4.79,.39-4.59,1.31-8.81,2.64-12.39,.45-1.22,.94-2.36,1.48-3.43,2.67-5.27,6.35-8.54,10.42-8.54h169.45Z"/><path class="m" d="M434.78,88.75v10.49h-154.61c-1.73,0-3.13-2.35-3.13-5.25h0c0-2.9,1.4-5.25,3.13-5.25h154.61Z"/><path class="m" d="M434.78,108.72v10.49h-154.61c-1.73,0-3.13-2.35-3.13-5.25h0c0-2.9,1.4-5.25,3.13-5.25h154.61Z"/><polygon class="j" points="338.96 113.65 338.96 157.99 314.73 143.05 290.49 157.99 290.49 113.65 338.96 113.65"/></g></svg>