<?xml version="1.0" encoding="UTF-8"?><svg id="a" xmlns="http://www.w3.org/2000/svg" viewBox="0 0 512 512"><defs><style>.b{fill:#fad223;}.c{fill:#5aa5d7;}.d{fill:#376ea5;}.e{fill:#fa913c;}.f{fill:#ccc;}.g{fill:none;stroke:#ffe266;stroke-linecap:round;stroke-miterlimit:10;stroke-width:6.94px;}.h{fill:#6cbae5;}.i{fill:#1e5a8c;}.j{fill:#f9e926;}.k{fill:#f2f2f2;}.l{fill:#fff0c8;}</style></defs><path class="i" d="M140.45,384.07c-3.66,3.67-5.93,8.73-5.93,14.32,0,11.18,9.07,20.25,20.25,20.25h232.98v10.27H154.77c-16.84,0-30.52-13.7-30.52-30.52s13.69-30.52,30.52-30.52h232.98v10.27H154.77c-5.59,0-10.65,2.27-14.32,5.93Z"/><rect class="c" x="175.45" y="64.67" width="212.3" height="303.2"/><path class="d" d="M175.45,64.67V367.87h-20.68c-16.84,0-30.52,13.69-30.52,30.52V95.2c0-16.83,13.69-30.52,30.52-30.52h20.68Z"/><path class="e" d="M175.45,98.06v35.45h-20.68c-16.84,0-30.52,13.7-30.52,30.52v-35.44c0-16.83,13.68-30.53,30.52-30.53h20.68Z"/><path class="e" d="M175.45,301.9v35.45h-20.68c-16.84,0-30.52,13.7-30.52,30.52v-35.44c0-16.83,13.68-30.53,30.52-30.53h20.68Z"/><path class="l" d="M387.75,378.14v40.5H154.77c-6.2,0-11.76-2.79-15.47-7.19-2.07-2.44-3.56-5.38-4.28-8.61-.33-1.43-.5-2.92-.5-4.45,0-1.13,.09-2.25,.27-3.33,.53-3.19,1.8-6.12,3.63-8.61,.62-.85,1.29-1.64,2.03-2.38,3.67-3.66,8.73-5.93,14.32-5.93h232.98Z"/><path class="f" d="M387.75,386.45v8.61H175.17c-2.38,0-4.3-1.93-4.3-4.3h0c0-2.38,1.93-4.31,4.3-4.31h212.58Z"/><path class="f" d="M387.75,402.84v8.61H175.17c-2.38,0-4.3-1.93-4.3-4.3h0c0-2.38,1.93-4.3,4.3-4.3h212.58Z"/><polygon class="e" points="355.17 447.33 329.69 431.61 304.2 447.33 304.2 389.92 355.17 389.92 355.17 447.33"/><rect class="h" x="274.31" y="64.67" width="113.44" height="303.2"/><g><path class="b" d="M317.09,233.97c-1.62,2.25-3.38,4.46-5.29,6.61-11.05,12.48-24.61,20.59-37.49,23.55-12.87-2.96-26.43-11.07-37.48-23.55-1.91-2.15-3.68-4.36-5.3-6.61-16.87-23.33-18.73-51.1-3.32-64.75,11.32-10.03,29.1-9.89,46.1-1.34,17.01-8.55,34.78-8.69,46.1,1.34,15.41,13.65,13.56,41.42-3.32,64.75Z"/><path class="g" d="M240.35,228.24c-4.34-5.99-7.48-12.28-9.39-18.38-4.11-13.13-2.52-25.43,5.17-32.24,3.89-3.45,9.2-5.27,15.34-5.27"/><path class="j" d="M317.09,233.97c-1.62,2.25-3.38,4.46-5.29,6.61-11.05,12.48-24.61,20.59-37.49,23.55v-96.25c17.01-8.55,34.78-8.69,46.1,1.34,15.41,13.65,13.56,41.42-3.32,64.75Z"/></g><rect class="k" x="216.09" y="307.59" width="114.6" height="42.26"/></svg>