<?xml version="1.0" encoding="UTF-8"?><svg id="a" xmlns="http://www.w3.org/2000/svg" viewBox="0 0 512 512"><defs><style>.b{fill:#5b3458;}.c{fill:#4f2a4e;}.d{fill:#e6e6e6;}.e{fill:#7a4877;}.f{fill:#fa7f08;}.g{fill:#ccc;}.h{fill:#f9e926;}.i{fill:#6b4166;}.j{fill:#efc71b;}.k{fill:#fff0c8;}</style></defs><g><ellipse class="d" cx="256" cy="414.67" rx="192" ry="31.23"/><path class="c" d="M146.12,369.82c-3.48,3.49-5.64,8.3-5.64,13.62,0,10.63,8.62,19.26,19.26,19.26h221.55v9.77H159.74c-16.01,0-29.03-13.02-29.03-29.03s13.02-29.03,29.03-29.03h221.55v9.77H159.74c-5.31,0-10.13,2.16-13.62,5.64Z"/><rect class="i" x="179.4" y="66.11" width="201.88" height="288.31"/><path class="b" d="M179.4,66.11V354.42h-19.66c-16.01,0-29.03,13.02-29.03,29.03V95.13c0-16,13.02-29.03,29.03-29.03h19.66Z"/><path class="f" d="M179.4,97.85v33.71h-19.66c-16.01,0-29.02,13.03-29.02,29.02v-33.7c0-16,13.01-29.03,29.02-29.03h19.66Z"/><path class="f" d="M179.4,291.69v33.71h-19.66c-16.01,0-29.02,13.03-29.02,29.02v-33.7c0-16,13.01-29.03,29.02-29.03h19.66Z"/><path class="k" d="M381.28,364.19v38.51H159.74c-5.9,0-11.18-2.65-14.71-6.84-1.97-2.32-3.39-5.12-4.07-8.19-.31-1.36-.48-2.78-.48-4.23,0-1.07,.09-2.14,.26-3.17,.5-3.03,1.71-5.82,3.45-8.19,.59-.81,1.23-1.56,1.93-2.26,3.49-3.48,8.3-5.64,13.62-5.64h221.54Z"/><path class="g" d="M381.28,372.09v8.19H179.14c-2.26,0-4.09-1.83-4.09-4.09h0c0-2.26,1.83-4.09,4.09-4.09h202.14Z"/><path class="g" d="M381.28,387.67v8.19H179.14c-2.26,0-4.09-1.83-4.09-4.09h0c0-2.26,1.83-4.09,4.09-4.09h202.14Z"/><polygon class="f" points="350.3 429.97 326.07 415.03 301.83 429.97 301.83 375.38 350.3 375.38 350.3 429.97"/><rect class="e" x="273.41" y="66.11" width="107.87" height="288.31"/></g><g><path class="h" d="M339.47,233.93c-.62-3.32-1.32-6.34-2.07-9.07-6.17-22.27-15.97-25.67-15.97-25.67,4.29,0,9.39,2.59,12.83,4.69,2.26,1.38,3.81,2.56,3.92,2.65-3.1-5.64-5.97-10.06-8.57-13.53-9.34-12.5-15.1-12.64-15.36-12.64,1.95-.44,4.1-.49,6.12-.37,4.23,.26,7.94,1.31,8.17,1.37-7.49-7.27-15.02-10.81-21.31-12.45-9.19-2.4-15.74-.75-15.74-.75,1.21-2.25,2.63-3.95,3.93-5.2,2.16-2.07,3.99-2.9,3.99-2.9-5.5-.84-10.61-.81-15.16-.27-11.58,1.36-19.67,5.94-22.11,7.46,2.81-1.96,5.04-5.08,6.78-8.52,4.41-8.68,5.78-19.47,5.78-19.47,0,0-14.67,14.51-26.03,23.72-3.74,3.03-7.12,5.49-9.5,6.67-9.63,4.77-16.57,16.09-9.54,18.53,0,0-7.03,8.5-11.68,9.48-2.66,.56-3.5-1.82-3.73-3.97h0c-.17-1.6,0-3.06,0-3.06,0,0-2.74,4-2.69,8.86,.06,5.58,3.8,12.29,19.63,15.36,0,0-6.91-6.55,8.62-5.02,0,0-6.05-6.55,4.28-6.97,10.34-.43,21.16-3.36,20.73-11.19,0,0,25.45-6.18,36.46,16.94-.1-.13-1.87-2.27-8.71-4.76,0,0,9.08,18.35-22.72,27.4-27.66,7.88-42.55,32.59-24.22,52.42,8.09,3.61,17.06,5.6,26.49,5.6,25.29,0,47.22-14.38,58.07-35.4-14.32,17.6-45.55,32.61-52.89,17.5-9.54-19.63,17.8-24.59,39.99-29.36,22.2-4.77,15.11-12.78,15.11-12.78l4.51,2.99,2.58,1.72Zm-95.13-52.11l-7.25,.92,10.64-11.19-3.39,10.27Z"/><path class="j" d="M292.55,203.84s9.08,18.35-22.72,27.4c-27.66,7.88-42.55,32.59-24.22,52.42-1.81-.8-3.59-1.69-5.31-2.65,0,0,0,0-.01,0-13.6-7.44-7.9-21.14-7.9-21.14-3.92,1.47-5.63,4.65-5.63,4.65-4.89-27.64,14.55-32.17,14.55-32.17-11.86,0-15.53,5.5-15.53,5.5,4.4-25.08,46.73-19.81,56.51-32.05,9.78-12.23-17.49-14.13-17.49-14.13,0,0,25.45-6.18,36.46,16.94-.1-.13-1.87-2.27-8.71-4.76Z"/></g></svg>