<?xml version="1.0" encoding="UTF-8"?><svg id="a" xmlns="http://www.w3.org/2000/svg" viewBox="0 0 512 512"><defs><style>.b{fill:#d92525;}.c{fill:#efdb25;}.d{fill:#e6e6e6;}.e{fill:#e55757;}.f{fill:#ccc;}.g{fill:#f46c6c;}.h{fill:#ea3636;}.i{fill:#044040;}.j{fill:#f9e926;}.k{fill:#f2f2f2;}.l{fill:#fff0c8;}</style></defs><g><ellipse class="d" cx="256" cy="414.67" rx="192" ry="31.23"/><path class="b" d="M146.12,369.82c-3.48,3.49-5.64,8.3-5.64,13.62,0,10.63,8.62,19.26,19.26,19.26h221.55v9.77H159.74c-16.01,0-29.03-13.02-29.03-29.03s13.02-29.03,29.03-29.03h221.55v9.77H159.74c-5.31,0-10.13,2.16-13.62,5.64Z"/><rect class="e" x="179.4" y="66.11" width="201.88" height="288.31"/><path class="h" d="M179.4,66.11V354.42h-19.66c-16.01,0-29.03,13.02-29.03,29.03V95.13c0-16,13.02-29.03,29.03-29.03h19.66Z"/><path class="k" d="M179.4,97.85v33.71h-19.66c-16.01,0-29.02,13.03-29.02,29.02v-33.7c0-16,13.01-29.03,29.02-29.03h19.66Z"/><path class="k" d="M179.4,291.69v33.71h-19.66c-16.01,0-29.02,13.03-29.02,29.02v-33.7c0-16,13.01-29.03,29.02-29.03h19.66Z"/><path class="l" d="M381.28,364.19v38.51H159.74c-5.9,0-11.18-2.65-14.71-6.84-1.97-2.32-3.39-5.12-4.07-8.19-.31-1.36-.48-2.78-.48-4.23,0-1.07,.09-2.14,.26-3.17,.5-3.03,1.71-5.82,3.45-8.19,.59-.81,1.23-1.56,1.93-2.26,3.49-3.48,8.3-5.64,13.62-5.64h221.54Z"/><path class="f" d="M381.28,372.09v8.19H179.14c-2.26,0-4.09-1.83-4.09-4.09h0c0-2.26,1.83-4.09,4.09-4.09h202.14Z"/><path class="f" d="M381.28,387.67v8.19H179.14c-2.26,0-4.09-1.83-4.09-4.09h0c0-2.26,1.83-4.09,4.09-4.09h202.14Z"/><polygon class="k" points="350.3 429.97 326.07 415.03 301.83 429.97 301.83 375.38 350.3 375.38 350.3 429.97"/><rect class="g" x="273.41" y="66.11" width="107.87" height="288.31"/></g><g><g><path class="c" d="M232.56,243.46h19.38v35.69c0,5.35-4.34,9.69-9.69,9.69h0c-5.35,0-9.69-4.34-9.69-9.69v-35.69h0Z"/><path class="c" d="M263.71,243.46h19.38v35.69c0,5.35-4.34,9.69-9.69,9.69h0c-5.35,0-9.69-4.34-9.69-9.69v-35.69h0Z"/><path class="c" d="M295.4,243.46h19.38v35.69c0,5.35-4.34,9.69-9.69,9.69h0c-5.35,0-9.69-4.34-9.69-9.69v-35.69h0Z"/><path class="j" d="M214.51,232.58h117.78v45.17c0,6.12-4.97,11.09-11.09,11.09h-1.66c-2.9,0-5.54-1.11-7.51-2.94-2.2-2.02-3.58-4.93-3.58-8.15v-23.88c0-2.07-1.67-3.74-3.74-3.74s-3.73,1.67-3.73,3.74v23.88c0,3.02-1.22,5.77-3.18,7.77-2.02,2.05-4.82,3.32-7.92,3.32h-1.65c-3,0-5.72-1.19-7.71-3.12-2.09-2.01-3.38-4.84-3.38-7.97v-23.88c0-2.07-1.67-3.74-3.74-3.74s-3.74,1.67-3.74,3.74v23.88c0,3.13-1.3,5.96-3.38,7.97-1.99,1.93-4.71,3.12-7.71,3.12h-1.65c-2.96,0-5.65-1.16-7.63-3.04-2.14-2.02-3.47-4.88-3.47-8.05v-23.88c0-2.07-1.67-3.74-3.73-3.74s-3.74,1.67-3.74,3.74v23.88c0,3.09-1.26,5.88-3.3,7.89-2,1.97-4.75,3.2-7.79,3.2h-1.66c-6.12,0-11.09-4.97-11.09-11.09v-45.17Z"/></g><g><path class="j" d="M332.29,197.73v34.85h-117.78v-34.85h0c0-.11,0-.22,0-.33,.18-32.52,26.7-58.73,59.22-58.56,32.41,.18,58.55,26.52,58.55,58.89h0Z"/><g><ellipse class="i" cx="247.72" cy="193.34" rx="9.96" ry="13.28"/><ellipse class="i" cx="299.08" cy="193.34" rx="9.96" ry="13.28"/></g></g></g></svg>