<?xml version="1.0" encoding="UTF-8"?><svg id="a" xmlns="http://www.w3.org/2000/svg" viewBox="0 0 512 512"><defs><style>.b{fill:#7a0627;}.c{fill:#e6e6e6;}.d{fill:#ad0626;}.e{fill:#3d182b;}.f{fill:#ffce00;}.g{fill:#960b2c;}.h{fill:#ccc;}.i{fill:#bc153d;}.j{fill:#f9e926;}.k{fill:#efc71b;}.l{fill:#fff0c8;}</style></defs><g><ellipse class="c" cx="256" cy="414.67" rx="192" ry="31.23"/><path class="b" d="M146.12,369.82c-3.48,3.49-5.64,8.3-5.64,13.62,0,10.63,8.62,19.26,19.26,19.26h221.55v9.77H159.74c-16.01,0-29.03-13.02-29.03-29.03s13.02-29.03,29.03-29.03h221.55v9.77H159.74c-5.31,0-10.13,2.16-13.62,5.64Z"/><rect class="d" x="179.4" y="66.11" width="201.88" height="288.31"/><path class="g" d="M179.4,66.11V354.42h-19.66c-16.01,0-29.03,13.02-29.03,29.03V95.13c0-16,13.02-29.03,29.03-29.03h19.66Z"/><path class="f" d="M179.4,97.85v33.71h-19.66c-16.01,0-29.02,13.03-29.02,29.02v-33.7c0-16,13.01-29.03,29.02-29.03h19.66Z"/><path class="f" d="M179.4,291.69v33.71h-19.66c-16.01,0-29.02,13.03-29.02,29.02v-33.7c0-16,13.01-29.03,29.02-29.03h19.66Z"/><path class="l" d="M381.28,364.19v38.51H159.74c-5.9,0-11.18-2.65-14.71-6.84-1.97-2.32-3.39-5.12-4.07-8.19-.31-1.36-.48-2.78-.48-4.23,0-1.07,.09-2.14,.26-3.17,.5-3.03,1.71-5.82,3.45-8.19,.59-.81,1.23-1.56,1.93-2.26,3.49-3.48,8.3-5.64,13.62-5.64h221.54Z"/><path class="h" d="M381.28,372.09v8.19H179.14c-2.26,0-4.09-1.83-4.09-4.09h0c0-2.26,1.83-4.09,4.09-4.09h202.14Z"/><path class="h" d="M381.28,387.67v8.19H179.14c-2.26,0-4.09-1.83-4.09-4.09h0c0-2.26,1.83-4.09,4.09-4.09h202.14Z"/><polygon class="f" points="350.3 429.97 326.07 415.03 301.83 429.97 301.83 375.38 350.3 375.38 350.3 429.97"/><rect class="i" x="273.41" y="66.11" width="107.87" height="288.31"/></g><g><circle class="j" cx="273.41" cy="213.02" r="75" transform="translate(-70.55 255.72) rotate(-45)"/><path class="k" d="M273.41,138.02v150c-41.43,0-75-33.57-75-75s33.57-75,75-75Z"/><path class="e" d="M325.55,220.15c-.76,5.66-2.43,11.03-4.86,15.97-1.26,2.58-2.73,5.05-4.39,7.37-9.54,13.4-25.2,22.14-42.89,22.14s-33.35-8.74-42.89-22.14c-1.66-2.32-3.13-4.79-4.39-7.37-2.41-4.94-4.08-10.31-4.85-15.97h104.26Z"/><path class="d" d="M316.3,243.49c-9.54,13.4-25.2,22.14-42.89,22.14s-33.35-8.74-42.89-22.14c13.03-8.33,27.57-12.98,42.89-12.98s29.87,4.65,42.89,12.98Z"/><path class="e" d="M257.64,189.15c.6,1.01-.39,2.21-1.49,1.79-4.86-1.87-10.54-2.95-16.6-2.95s-11.74,1.08-16.6,2.95c-1.09,.42-2.09-.78-1.49-1.79,3.68-6.15,10.4-10.26,18.09-10.26s14.41,4.11,18.09,10.26Z"/><path class="e" d="M325.36,189.15c.6,1.01-.39,2.21-1.49,1.79-4.86-1.87-10.54-2.95-16.6-2.95s-11.74,1.08-16.6,2.95c-1.09,.42-2.09-.78-1.49-1.79,3.68-6.15,10.4-10.26,18.09-10.26s14.41,4.11,18.09,10.26Z"/></g></svg>