<?xml version="1.0" encoding="UTF-8"?><svg id="a" xmlns="http://www.w3.org/2000/svg" viewBox="0 0 512 512"><defs><style>.b{fill:#fad223;}.c{fill:#5aa5d7;}.d{fill:#e6e6e6;}.e{fill:#376ea5;}.f{fill:#fa913c;}.g{fill:#ccc;}.h{fill:none;stroke:#ffe266;stroke-linecap:round;stroke-miterlimit:10;stroke-width:6.6px;}.i{fill:#6cbae5;}.j{fill:#1e5a8c;}.k{fill:#f9e926;}.l{fill:#f2f2f2;}.m{fill:#fff0c8;}</style></defs><ellipse class="d" cx="256" cy="423.04" rx="192" ry="31.23"/><g><path class="j" d="M146.12,378.19c-3.48,3.49-5.64,8.3-5.64,13.62,0,10.63,8.62,19.26,19.26,19.26h221.55v9.77H159.74c-16.01,0-29.03-13.02-29.03-29.03s13.02-29.03,29.03-29.03h221.55v9.77H159.74c-5.31,0-10.13,2.16-13.62,5.64Z"/><rect class="c" x="179.4" y="74.48" width="201.88" height="288.31"/><path class="e" d="M179.4,74.48V362.79h-19.66c-16.01,0-29.03,13.02-29.03,29.03V103.5c0-16,13.02-29.03,29.03-29.03h19.66Z"/><path class="f" d="M179.4,106.23v33.71h-19.66c-16.01,0-29.02,13.03-29.02,29.02v-33.7c0-16,13.01-29.03,29.02-29.03h19.66Z"/><path class="f" d="M179.4,300.06v33.71h-19.66c-16.01,0-29.02,13.03-29.02,29.02v-33.7c0-16,13.01-29.03,29.02-29.03h19.66Z"/><path class="m" d="M381.28,372.56v38.51H159.74c-5.9,0-11.18-2.65-14.71-6.84-1.97-2.32-3.39-5.12-4.07-8.19-.31-1.36-.48-2.78-.48-4.23,0-1.07,.09-2.14,.26-3.17,.5-3.03,1.71-5.82,3.45-8.19,.59-.81,1.23-1.56,1.93-2.26,3.49-3.48,8.3-5.64,13.62-5.64h221.54Z"/><path class="g" d="M381.28,380.46v8.19H179.14c-2.26,0-4.09-1.83-4.09-4.09h0c0-2.26,1.83-4.09,4.09-4.09h202.14Z"/><path class="g" d="M381.28,396.05v8.19H179.14c-2.26,0-4.09-1.83-4.09-4.09h0c0-2.26,1.83-4.09,4.09-4.09h202.14Z"/><polygon class="f" points="350.3 438.34 326.07 423.4 301.83 438.34 301.83 383.75 350.3 383.75 350.3 438.34"/><rect class="i" x="273.41" y="74.48" width="107.87" height="288.31"/><g><path class="b" d="M314.09,235.47c-1.54,2.14-3.21,4.24-5.03,6.29-10.51,11.87-23.4,19.58-35.65,22.39-12.24-2.81-25.13-10.53-35.64-22.39-1.82-2.04-3.5-4.15-5.04-6.29-16.04-22.18-17.81-48.59-3.16-61.57,10.76-9.54,27.67-9.4,43.84-1.27,16.17-8.13,33.07-8.26,43.84,1.27,14.65,12.98,12.89,39.39-3.16,61.57Z"/><path class="h" d="M241.12,230.01c-4.12-5.7-7.11-11.67-8.93-17.48-3.91-12.49-2.4-24.19,4.91-30.66,3.7-3.28,8.75-5.01,14.59-5.01"/><path class="k" d="M314.09,235.47c-1.54,2.14-3.21,4.24-5.03,6.29-10.51,11.87-23.4,19.58-35.65,22.39v-91.52c16.17-8.13,33.07-8.26,43.84,1.27,14.65,12.98,12.89,39.39-3.16,61.57Z"/></g><rect class="l" x="218.05" y="305.47" width="108.97" height="40.19"/></g></svg>