<?xml version="1.0" encoding="UTF-8"?><svg id="a" xmlns="http://www.w3.org/2000/svg" viewBox="0 0 512 512"><defs><style>.b{fill:#fff;}.c{fill:#32772b;}.d{fill:#4e9b46;}.e{fill:#fad223;}.f{fill:#cca811;}.g{fill:#e6e6e6;}.h{fill:#bc9a0d;}.i{fill:#52a549;}.j{fill:#25601e;}.k{fill:#ccc;}.l{fill:#f9e926;}.m{fill:#146152;}.n{fill:#f2f2f2;}.o{fill:#efc71b;}.p{fill:#fff0c8;}</style></defs><ellipse class="g" cx="256" cy="414.67" rx="192" ry="31.23"/><path class="j" d="M146.12,369.82c-3.48,3.49-5.64,8.3-5.64,13.62,0,10.63,8.62,19.26,19.26,19.26h221.55v9.77H159.74c-16.01,0-29.03-13.02-29.03-29.03s13.02-29.03,29.03-29.03h221.55v9.77H159.74c-5.31,0-10.13,2.16-13.62,5.64Z"/><rect class="d" x="179.4" y="66.11" width="201.88" height="288.31"/><path class="c" d="M179.4,66.11V354.42h-19.66c-16.01,0-29.03,13.02-29.03,29.03V95.13c0-16,13.02-29.03,29.03-29.03h19.66Z"/><path class="m" d="M179.4,97.85v33.71h-19.66c-16.01,0-29.02,13.03-29.02,29.02v-33.7c0-16,13.01-29.03,29.02-29.03h19.66Z"/><path class="m" d="M179.4,291.69v33.71h-19.66c-16.01,0-29.02,13.03-29.02,29.02v-33.7c0-16,13.01-29.03,29.02-29.03h19.66Z"/><path class="p" d="M381.28,364.19v38.51H159.74c-5.9,0-11.18-2.65-14.71-6.84-1.97-2.32-3.39-5.12-4.07-8.19-.31-1.36-.48-2.78-.48-4.23,0-1.07,.09-2.14,.26-3.17,.5-3.03,1.71-5.82,3.45-8.19,.59-.81,1.23-1.56,1.93-2.26,3.49-3.48,8.3-5.64,13.62-5.64h221.54Z"/><path class="k" d="M381.28,372.09v8.19H179.14c-2.26,0-4.09-1.83-4.09-4.09h0c0-2.26,1.83-4.09,4.09-4.09h202.14Z"/><path class="k" d="M381.28,387.67v8.19H179.14c-2.26,0-4.09-1.83-4.09-4.09h0c0-2.26,1.83-4.09,4.09-4.09h202.14Z"/><polygon class="m" points="350.3 429.97 326.07 415.03 301.83 429.97 301.83 375.38 350.3 375.38 350.3 429.97"/><rect class="i" x="273.41" y="66.11" width="107.87" height="288.31"/><g><path class="l" d="M315.56,284.26c-12.3,1.84-25.95,2.86-40.34,2.86s-28.03-1.02-40.32-2.86l4.75-32.64,4.48-30.85,.74-5.07,3.54-24.3h53.64l3.54,24.3,.74,5.07,4.48,30.85,4.75,32.64Z"/><g><g><g><circle class="f" cx="222.56" cy="246.64" r="9.75"/><rect class="f" x="229.78" y="196.35" width="3.35" height="52.97" transform="translate(92.53 -66.87) rotate(20.47)"/></g><g><circle class="f" cx="327.88" cy="246.64" r="9.75"/><rect class="f" x="317.32" y="196.35" width="3.35" height="52.97" transform="translate(695.77 320.05) rotate(159.53)"/></g></g><g><circle class="f" cx="275.22" cy="259.16" r="9.75"/><rect class="f" x="273.55" y="207.26" width="3.35" height="52.97"/></g><g><path class="f" d="M362.4,200.47c0,12-39.02,21.73-87.17,21.73h-.01c-48.14,0-87.17-9.73-87.17-21.73s39.03-21.73,87.17-21.73h.01c48.15,0,87.17,9.73,87.17,21.73Z"/><path class="e" d="M362.4,195.33c0,12-39.02,21.73-87.17,21.73h-.01c-48.14,0-87.17-9.73-87.17-21.73s39.03-21.73,87.17-21.73h.01c48.15,0,87.17,9.73,87.17,21.73Z"/><path class="b" d="M322.57,184.47c0,.45-.01,.92-.02,1.37-13.45,3.51-29.75,5.56-47.32,5.56h-.01c-17.57,0-33.88-2.06-47.33-5.56-.01-.45-.02-.92-.02-1.37,0-26.16,21.2-47.36,47.35-47.36h.01c26.15,.01,47.34,21.2,47.34,47.36Z"/><path class="h" d="M275.23,178.75v43.45h-.01c-48.14,0-87.17-9.73-87.17-21.73s39.03-21.73,87.17-21.73h.01Z"/><path class="o" d="M275.23,173.6v43.45h-.01c-48.14,0-87.17-9.73-87.17-21.73s39.03-21.73,87.17-21.73h.01Z"/><path class="n" d="M275.23,137.11v54.29h-.01c-17.57,0-33.88-2.06-47.33-5.56-.01-.45-.02-.92-.02-1.37,0-26.16,21.2-47.36,47.35-47.36h.01Z"/><g><g><ellipse class="l" cx="258.16" cy="203.45" rx="7.93" ry="6.87"/><ellipse class="l" cx="227.87" cy="198.22" rx="6.04" ry="5.23"/><ellipse class="l" cx="205.82" cy="191.4" rx="4.23" ry="3.67"/></g><g><ellipse class="l" cx="292.29" cy="203.45" rx="7.93" ry="6.87"/><ellipse class="l" cx="322.58" cy="198.22" rx="6.04" ry="5.23"/><ellipse class="l" cx="344.63" cy="191.4" rx="4.23" ry="3.67"/></g></g></g></g></g></svg>